<svg width="17" height="17" viewBox="0 0 17 17" fill="none" xmlns="http://www.w3.org/2000/svg">
<path d="M15.5833 2.84043C14.875 3.18751 14.1808 3.32847 13.4583 3.54168C12.6643 2.64563 11.487 2.59605 10.3558 3.01963C9.22461 3.44322 8.4837 4.4788 8.49999 5.66668V6.37501C6.20145 6.4338 4.15436 5.38688 2.83332 3.54168C2.83332 3.54168 -0.128927 8.80672 5.66666 11.3333C4.34066 12.2166 3.0182 12.8123 1.41666 12.75C3.75982 14.0271 6.31336 14.4663 8.52407 13.8246C11.0599 13.0879 13.1438 11.1874 13.9435 8.34063C14.1821 7.47482 14.3005 6.58033 14.2956 5.68226C14.2942 5.50588 15.3652 3.71876 15.5833 2.83972V2.84043Z" stroke="#39AFFD" stroke-width="2" stroke-linecap="round" stroke-linejoin="round"/>
</svg>
