<svg width="19" height="18" viewBox="0 0 19 18" fill="none" xmlns="http://www.w3.org/2000/svg">
<path d="M6.27058 5.25V3.75C6.27058 3.35218 6.42823 2.97064 6.70885 2.68934C6.98947 2.40804 7.37008 2.25 7.76694 2.25H10.7597C11.1565 2.25 11.5371 2.40804 11.8178 2.68934C12.0984 2.97064 12.256 3.35218 12.256 3.75V5.25M9.26331 9V9.0075M2.52966 9.75C4.61828 10.805 6.92451 11.3546 9.26331 11.3546C11.6021 11.3546 13.9083 10.805 15.9969 9.75M4.02603 5.25H14.5006C15.327 5.25 15.9969 5.92157 15.9969 6.75V13.5C15.9969 14.3284 15.327 15 14.5006 15H4.02603C3.19961 15 2.52966 14.3284 2.52966 13.5V6.75C2.52966 5.92157 3.19961 5.25 4.02603 5.25Z" stroke="#444444" stroke-width="2" stroke-linecap="round" stroke-linejoin="round"/>
</svg>
