<svg width="19" height="18" viewBox="0 0 19 18" fill="none" xmlns="http://www.w3.org/2000/svg">
<path d="M11.7071 6.74998C11.5716 6.5143 11.3746 6.32001 11.1374 6.18789C10.9002 6.05578 10.6316 5.99083 10.3604 5.99998H8.864C8.46714 5.99998 8.08653 6.15802 7.80591 6.43932C7.52529 6.72062 7.36764 7.10216 7.36764 7.49998C7.36764 7.8978 7.52529 8.27934 7.80591 8.56064C8.08653 8.84194 8.46714 8.99998 8.864 8.99998H10.3604C10.7572 8.99998 11.1378 9.15802 11.4185 9.43932C11.6991 9.72062 11.8567 10.1022 11.8567 10.5C11.8567 10.8978 11.6991 11.2793 11.4185 11.5606C11.1378 11.8419 10.7572 12 10.3604 12H8.864C8.59278 12.0091 8.32418 11.9442 8.08695 11.8121C7.84973 11.68 7.65281 11.4857 7.51727 11.25M9.61218 4.5V6M9.61218 12V13.5M16.3458 9C16.3458 12.7279 13.3311 15.75 9.61218 15.75C5.89329 15.75 2.87854 12.7279 2.87854 9C2.87854 5.27208 5.89329 2.25 9.61218 2.25C13.3311 2.25 16.3458 5.27208 16.3458 9Z" stroke="#444444" stroke-width="2" stroke-linecap="round" stroke-linejoin="round"/>
</svg>
